<?xml version="1.0" encoding="iso-8859-1"?>
<!-- Generator: Adobe Illustrator 26.0.1, SVG Export Plug-In . SVG Version: 6.00 Build 0)  -->
<svg version="1.1" id="Layer_1" xmlns="http://www.w3.org/2000/svg" xmlns:xlink="http://www.w3.org/1999/xlink" x="0px" y="0px"
	 viewBox="0 0 1000 1000" style="enable-background:new 0 0 1000 1000;" xml:space="preserve">
<g transform="matrix(2.44844 0 0 2.44844 130 50.0049)">
	<path style="fill:#21759B;" d="M62.377,183.214c0,34.865,20.262,64.996,49.643,79.274L70.003,147.367
		C65.116,158.321,62.377,170.444,62.377,183.214z"/>
	<path style="fill:#21759B;" d="M209.924,178.769c0-10.886-3.91-18.425-7.264-24.293c-4.465-7.256-8.65-13.4-8.65-20.656
		c0-8.097,6.141-15.634,14.791-15.634c0.391,0,0.761,0.049,1.141,0.07c-15.671-14.357-36.55-23.123-59.481-23.123
		c-30.772,0-57.846,15.788-73.596,39.702c2.067,0.062,4.014,0.106,5.668,0.106c9.213,0,23.475-1.118,23.475-1.118
		c4.748-0.28,5.308,6.694,0.565,7.256c0,0-4.772,0.561-10.081,0.84l32.076,95.409l19.276-57.812l-13.724-37.601
		c-4.743-0.278-9.237-0.84-9.237-0.84c-4.747-0.278-4.19-7.536,0.556-7.256c0,0,14.546,1.118,23.202,1.118
		c9.212,0,23.475-1.118,23.475-1.118c4.752-0.28,5.31,6.694,0.565,7.256c0,0-4.782,0.561-10.081,0.84l31.832,94.687l8.786-29.359
		C207.026,195.061,209.924,186.31,209.924,178.769L209.924,178.769z"/>
	<path style="fill:#21759B;" d="M152.006,190.919l-26.428,76.795c7.891,2.32,16.236,3.588,24.883,3.588
		c10.257,0,20.094-1.773,29.251-4.993c-0.236-0.377-0.451-0.778-0.627-1.213L152.006,190.919z"/>
	<path style="fill:#21759B;" d="M227.75,140.954c0.379,2.806,0.593,5.818,0.593,9.057c0,8.938-1.669,18.986-6.698,31.55
		l-26.906,77.791c26.187-15.271,43.8-43.641,43.8-76.136C238.542,167.902,234.63,153.501,227.75,140.954L227.75,140.954z"/>
	<path style="fill:#21759B;" d="M150.461,80.539c-56.615,0-102.678,46.06-102.678,102.675c0,56.622,46.063,102.68,102.678,102.68
		c56.614,0,102.684-46.058,102.684-102.68C253.142,126.599,207.074,80.539,150.461,80.539z M150.461,281.188
		c-54.019,0-97.97-43.951-97.97-97.974c0-54.019,43.95-97.967,97.97-97.967c54.018,0,97.965,43.948,97.965,97.967
		C248.426,237.237,204.478,281.188,150.461,281.188z"/>
</g>
</svg>
